# xmcd
#
# Track frame offsets:
#	150
#	14782
#	26987
#	46975
#	63902
#	76735
#	91055
#	106182
#	118662
#	133260
#	145425
#	165515
#	182450
#	195292
#	209602
#	224707
#
# Disc length: 3166 seconds
#
# Revision: 1
# Processed by: cddbd v1.5.1PL2 Copyright (c) Steve Scherf et al.
# Submitted via: audiograbber 1.83.01
#
DISCID=e50c5c10
DTITLE=Various Artist - Sc2090
DYEAR=1900
DGENRE=Country
TTITLE0=Stuart, Marty and Tritt, Travis - Hony Tonkin's What I Do Best
TTITLE1=Brooks, Garth - It's Midnight Cinderella
TTITLE2=Montgomery, John Michael - Long As I Live
TTITLE3=Brooks and Dunn - My Maria
TTITLE4=Strait, George - Fireman, The
TTITLE5=Ketchum, Hal - Stay Forever
TTITLE6=Alabama - Maker Said Take Her, The
TTITLE7=White, Bryan - So Much For Pretending
TTITLE8=Stuart, Marty and Tritt, Travis - Hony Tonkin's What I Do Best (Vocals)
TTITLE9=Brooks, Garth - It's Midnight Cinderella (Vocals)
TTITLE10=Montgomery, John Michael - Long As I Live (Vocals)
TTITLE11=Brooks and Dunn - My Maria (Vocals)
TTITLE12=Strait, George - Fireman, The (Vocals)
TTITLE13=Ketchum, Hal - Stay Forever (Vocals)
TTITLE14=Alabama - Maker Said Take Her, The (Vocals)
TTITLE15=White, Bryan - So Much For Pretending (Vocals)
EXTD=
EXTT0=
EXTT1=
EXTT2=
EXTT3=
EXTT4=
EXTT5=
EXTT6=
EXTT7=
EXTT8=
EXTT9=
EXTT10=
EXTT11=
EXTT12=
EXTT13=
EXTT14=
EXTT15=
PLAYORDER=
